<svg width="65" height="34" viewBox="0 0 65 34" fill="none" xmlns="http://www.w3.org/2000/svg">
<path d="M32.5 33C31.4194 33.0021 30.3721 32.6258 29.54 31.9363L1.78999 8.81126C0.845492 8.02622 0.251529 6.89813 0.138772 5.67516C0.0260161 4.45218 0.403702 3.23451 1.18874 2.29001C1.97378 1.3455 3.10187 0.751544 4.32485 0.638788C5.54782 0.526031 6.76549 0.903716 7.70999 1.68876L32.5 22.4088L57.29 2.42876C57.7631 2.04458 58.3074 1.75768 58.8917 1.58456C59.4761 1.41144 60.0888 1.35551 60.6948 1.41997C61.3008 1.48444 61.8881 1.66804 62.423 1.96022C62.9578 2.2524 63.4296 2.6474 63.8112 3.12251C64.2348 3.59806 64.5556 4.15595 64.7535 4.76125C64.9514 5.36654 65.0222 6.00618 64.9614 6.64009C64.9006 7.27401 64.7096 7.88855 64.4002 8.4452C64.0909 9.00185 63.6699 9.48862 63.1637 9.87501L35.4137 32.2138C34.5577 32.7943 33.5318 33.0711 32.5 33Z" fill="#1BB474"/>
</svg>
