<svg width="44" height="29" viewBox="0 0 44 29" fill="none" xmlns="http://www.w3.org/2000/svg">
<path opacity="0.04" fill-rule="evenodd" clip-rule="evenodd" d="M12.7452 0.275608C13.2303 0.687051 13.2865 1.40972 12.8707 1.88974L2.59233 13.755C2.22097 14.1837 2.22097 14.8163 2.59233 15.245L12.8707 27.1103C13.2865 27.5903 13.2303 28.313 12.7452 28.7244C12.2601 29.1358 11.5297 29.0802 11.1139 28.6002L0.835552 16.735C-0.278515 15.4489 -0.278519 13.5511 0.835551 12.2651L11.1139 0.399772C11.5297 -0.0802449 12.2601 -0.135835 12.7452 0.275608ZM28.1706 0.275608C28.6557 0.687051 28.7119 1.40972 28.2961 1.88974L18.0177 13.755C17.6464 14.1837 17.6464 14.8163 18.0177 15.245L28.2961 27.1103C28.7119 27.5903 28.6557 28.313 28.1706 28.7244C27.6855 29.1358 26.9551 29.0802 26.5393 28.6002L16.2609 16.735C15.1469 15.4489 15.1469 13.5511 16.2609 12.2651L26.5393 0.399772C26.9551 -0.0802449 27.6855 -0.135835 28.1706 0.275608ZM43.7215 1.88974C44.1373 1.40972 44.0811 0.687051 43.596 0.275608C43.1109 -0.135835 42.3805 -0.0802449 41.9647 0.399772L31.6863 12.2651C30.5723 13.5511 30.5723 15.4489 31.6863 16.735L41.9647 28.6002C42.3805 29.0802 43.1109 29.1358 43.596 28.7244C44.0811 28.313 44.1373 27.5903 43.7215 27.1103L33.4431 15.245C33.0718 14.8163 33.0718 14.1837 33.4431 13.755L43.7215 1.88974Z" fill="white"/>
</svg>
