<svg width="90" height="70" viewBox="0 0 90 70" fill="none" xmlns="http://www.w3.org/2000/svg">
<g filter="url(#filter0_i_39_70)">
<path d="M9.12687 67.3334C5.2428 61.1176 3.08809 53.9733 2.87931 46.6188C2.67052 39.2643 4.41502 31.9587 7.93748 25.4362C11.4599 18.9137 16.6362 13.4042 22.9461 9.46137C29.2559 5.51857 36.477 3.28143 43.8835 2.97482C51.2901 2.6682 58.6211 4.30289 65.1397 7.71461C71.6583 11.1263 77.1349 16.1948 81.019 22.4107C84.9031 28.6266 87.0578 35.7708 87.2665 43.1253C87.4753 50.4798 85.7308 57.7855 82.2084 64.308" stroke="white" stroke-width="5" stroke-linecap="round" stroke-linejoin="round"/>
<path d="M9.12687 67.3334C5.2428 61.1176 3.08809 53.9733 2.87931 46.6188C2.67052 39.2643 4.41502 31.9587 7.93748 25.4362C11.4599 18.9137 16.6362 13.4042 22.9461 9.46137C29.2559 5.51857 36.477 3.28143 43.8835 2.97482C51.2901 2.6682 58.6211 4.30289 65.1397 7.71461C71.6583 11.1263 77.1349 16.1948 81.019 22.4107C84.9031 28.6266 87.0578 35.7708 87.2665 43.1253C87.4753 50.4798 85.7308 57.7855 82.2084 64.308" stroke="url(#paint0_linear_39_70)" stroke-width="5" stroke-linecap="round" stroke-linejoin="round"/>
</g>
<defs>
<filter id="filter0_i_39_70" x="0.362549" y="0.438408" width="89.4208" height="69.3954" filterUnits="userSpaceOnUse" color-interpolation-filters="sRGB">
<feFlood flood-opacity="0" result="BackgroundImageFix"/>
<feBlend mode="normal" in="SourceGraphic" in2="BackgroundImageFix" result="shape"/>
<feColorMatrix in="SourceAlpha" type="matrix" values="0 0 0 0 0 0 0 0 0 0 0 0 0 0 0 0 0 0 127 0" result="hardAlpha"/>
<feOffset/>
<feGaussianBlur stdDeviation="3.97977"/>
<feComposite in2="hardAlpha" operator="arithmetic" k2="-1" k3="1"/>
<feColorMatrix type="matrix" values="0 0 0 0 0.44 0 0 0 0 0 0 0 0 0 1 0 0 0 1 0"/>
<feBlend mode="normal" in2="shape" result="effect1_innerShadow_39_70"/>
</filter>
<linearGradient id="paint0_linear_39_70" x1="64.2353" y1="75.5387" x2="22.9461" y2="9.46137" gradientUnits="userSpaceOnUse">
<stop stop-color="white"/>
<stop offset="1" stop-color="white" stop-opacity="0"/>
</linearGradient>
</defs>
</svg>
