<svg width="29" height="29" viewBox="0 0 29 29" fill="none" xmlns="http://www.w3.org/2000/svg">
<path d="M17.7312 14.5L27.5853 4.66876C28.0169 4.23723 28.2593 3.65195 28.2593 3.04167C28.2593 2.4314 28.0169 1.84612 27.5853 1.41459C27.1538 0.983062 26.5685 0.740631 25.9583 0.740631C25.348 0.740631 24.7627 0.983062 24.3312 1.41459L14.4999 11.2688L4.66867 1.41459C4.23714 0.983062 3.65186 0.740631 3.04159 0.740631C2.43131 0.740631 1.84603 0.983062 1.4145 1.41459C0.982975 1.84612 0.740544 2.4314 0.740544 3.04167C0.740544 3.65195 0.982975 4.23723 1.4145 4.66876L11.2687 14.5L1.4145 24.3313C1.19971 24.5443 1.02922 24.7978 0.912879 25.077C0.796534 25.3563 0.736633 25.6558 0.736633 25.9583C0.736633 26.2609 0.796534 26.5604 0.912879 26.8397C1.02922 27.1189 1.19971 27.3724 1.4145 27.5854C1.62754 27.8002 1.88101 27.9707 2.16027 28.0871C2.43953 28.2034 2.73906 28.2633 3.04159 28.2633C3.34412 28.2633 3.64365 28.2034 3.92291 28.0871C4.20217 27.9707 4.45563 27.8002 4.66867 27.5854L14.4999 17.7313L24.3312 27.5854C24.5442 27.8002 24.7977 27.9707 25.0769 28.0871C25.3562 28.2034 25.6557 28.2633 25.9583 28.2633C26.2608 28.2633 26.5603 28.2034 26.8396 28.0871C27.1188 27.9707 27.3723 27.8002 27.5853 27.5854C27.8001 27.3724 27.9706 27.1189 28.087 26.8397C28.2033 26.5604 28.2632 26.2609 28.2632 25.9583C28.2632 25.6558 28.2033 25.3563 28.087 25.077C27.9706 24.7978 27.8001 24.5443 27.5853 24.3313L17.7312 14.5Z" fill="#F3F2F4"/>
</svg>
