<svg width="21" height="28" viewBox="0 0 21 28" fill="none" xmlns="http://www.w3.org/2000/svg">
<path d="M12.25 7.4375V0H1.3125C0.585156 0 0 0.585156 0 1.3125V26.6875C0 27.4148 0.585156 28 1.3125 28H19.6875C20.4148 28 21 27.4148 21 26.6875V8.75H13.5625C12.8406 8.75 12.25 8.15938 12.25 7.4375ZM3.5 3.9375C3.5 3.69578 3.69578 3.5 3.9375 3.5H8.3125C8.55422 3.5 8.75 3.69578 8.75 3.9375V4.8125C8.75 5.05422 8.55422 5.25 8.3125 5.25H3.9375C3.69578 5.25 3.5 5.05422 3.5 4.8125V3.9375ZM3.5 7.4375C3.5 7.19578 3.69578 7 3.9375 7H8.3125C8.55422 7 8.75 7.19578 8.75 7.4375V8.3125C8.75 8.55422 8.55422 8.75 8.3125 8.75H3.9375C3.69578 8.75 3.5 8.55422 3.5 8.3125V7.4375ZM14.0443 21H16.625C17.1084 21 17.5 21.3916 17.5 21.875C17.5 22.3584 17.1084 22.75 16.625 22.75H14.0443C13.1447 22.75 12.3342 22.2502 11.9312 21.4452C11.7698 21.1214 11.4888 21.0886 11.375 21.0886C11.2612 21.0886 10.9802 21.1209 10.827 21.4271L10.4076 22.266C10.3349 22.4114 10.2232 22.5336 10.085 22.619C9.94678 22.7044 9.78748 22.7496 9.625 22.7495C9.60422 22.7495 9.58398 22.7484 9.56266 22.7467C9.20992 22.7221 8.90641 22.487 8.79539 22.1512L7.875 19.3916L7.29477 21.1351C6.97266 22.1009 6.07086 22.75 5.05258 22.75H4.375C3.89156 22.75 3.5 22.3584 3.5 21.875C3.5 21.3916 3.89156 21 4.375 21H5.05258C5.31672 21 5.55078 20.8316 5.63445 20.5811L6.62922 17.593C6.80969 17.0565 7.30953 16.6955 7.875 16.6955C8.44047 16.6955 8.94031 17.0559 9.12023 17.593L9.8793 19.8702C10.9605 18.9848 12.8352 19.3397 13.4887 20.6445C13.5991 20.8666 13.8146 21 14.0443 21ZM20.6172 5.74219L15.2633 0.382812C15.0172 0.136719 14.6836 0 14.3336 0H14V7H21V6.66641C21 6.32188 20.8633 5.98828 20.6172 5.74219Z" fill="#2B2B2B"/>
</svg>
