<svg width="76" height="76" viewBox="0 0 76 76" fill="none" xmlns="http://www.w3.org/2000/svg">
<g clip-path="url(#clip0_169_14)">
<path fill-rule="evenodd" clip-rule="evenodd" d="M41.8 60.8C43.8156 60.8 45.7487 61.6007 47.174 63.026C48.5993 64.4513 49.4 66.3844 49.4 68.4C49.4 70.4156 48.5993 72.3487 47.174 73.774C45.7487 75.1993 43.8156 76 41.8 76C39.7844 76 37.8513 75.1993 36.426 73.774C35.0007 72.3487 34.2 70.4156 34.2 68.4C34.2 66.3844 35.0007 64.4513 36.426 63.026C37.8513 61.6007 39.7844 60.8 41.8 60.8ZM18.0158 49.4C20.5354 49.4 22.9517 50.4009 24.7333 52.1825C26.5149 53.9641 27.5158 56.3804 27.5158 58.9C27.5158 61.4196 26.5149 63.8359 24.7333 65.6175C22.9517 67.3991 20.5354 68.4 18.0158 68.4C15.4962 68.4 13.0799 67.3991 11.2983 65.6175C9.51669 63.8359 8.5158 61.4196 8.5158 58.9C8.5158 56.3804 9.51669 53.9641 11.2983 52.1825C13.0799 50.4009 15.4962 49.4 18.0158 49.4ZM62.0122 51.3C64.0278 51.3 65.9609 52.1007 67.3862 53.526C68.8115 54.9513 69.6122 56.8844 69.6122 58.9C69.6122 60.9156 68.8115 62.8487 67.3862 64.274C65.9609 65.6993 64.0278 66.5 62.0122 66.5C59.9966 66.5 58.0635 65.6993 56.6382 64.274C55.2129 62.8487 54.4122 60.9156 54.4122 58.9C54.4122 56.8844 55.2129 54.9513 56.6382 53.526C58.0635 52.1007 59.9966 51.3 62.0122 51.3ZM70.3 35.4122C71.8117 35.4122 73.2616 36.0127 74.3305 37.0817C75.3995 38.1507 76 39.6005 76 41.1122C76 42.6239 75.3995 44.0738 74.3305 45.1427C73.2616 46.2117 71.8117 46.8122 70.3 46.8122C68.7883 46.8122 67.3384 46.2117 66.2695 45.1427C65.2005 44.0738 64.6 42.6239 64.6 41.1122C64.6 39.6005 65.2005 38.1507 66.2695 37.0817C67.3384 36.0127 68.7883 35.4122 70.3 35.4122ZM9.5 22.8C12.0196 22.8 14.4359 23.8009 16.2175 25.5825C17.9991 27.3641 19 29.7804 19 32.3C19 34.8196 17.9991 37.2359 16.2175 39.0175C14.4359 40.7991 12.0196 41.8 9.5 41.8C6.98044 41.8 4.56408 40.7991 2.78249 39.0175C1.00089 37.2359 0 34.8196 0 32.3C0 29.7804 1.00089 27.3641 2.78249 25.5825C4.56408 23.8009 6.98044 22.8 9.5 22.8ZM67.5868 19.7866C68.5946 19.7866 69.5612 20.187 70.2738 20.8996C70.9864 21.6122 71.3868 22.5788 71.3868 23.5866C71.3868 24.5944 70.9864 25.561 70.2738 26.2736C69.5612 26.9862 68.5946 27.3866 67.5868 27.3866C66.579 27.3866 65.6124 26.9862 64.8998 26.2736C64.1872 25.561 63.7868 24.5944 63.7868 23.5866C63.7868 22.5788 64.1872 21.6122 64.8998 20.8996C65.6124 20.187 66.579 19.7866 67.5868 19.7866ZM30.4 0C33.4235 0 36.3231 1.20107 38.461 3.33898C40.5989 5.4769 41.8 8.37653 41.8 11.4C41.8 14.4235 40.5989 17.3231 38.461 19.461C36.3231 21.5989 33.4235 22.8 30.4 22.8C27.3765 22.8 24.4769 21.5989 22.339 19.461C20.2011 17.3231 19 14.4235 19 11.4C19 8.37653 20.2011 5.4769 22.339 3.33898C24.4769 1.20107 27.3765 0 30.4 0V0ZM58.9 11.4C59.4039 11.4 59.8872 11.6002 60.2435 11.9565C60.5998 12.3128 60.8 12.7961 60.8 13.3C60.8 13.8039 60.5998 14.2872 60.2435 14.6435C59.8872 14.9998 59.4039 15.2 58.9 15.2C58.3961 15.2 57.9128 14.9998 57.5565 14.6435C57.2002 14.2872 57 13.8039 57 13.3C57 12.7961 57.2002 12.3128 57.5565 11.9565C57.9128 11.6002 58.3961 11.4 58.9 11.4Z" fill="#F2F1F4"/>
</g>
<defs>
<clipPath id="clip0_169_14">
<rect width="76" height="76" fill="white"/>
</clipPath>
</defs>
</svg>
