<svg width="28" height="30" viewBox="0 0 28 30" fill="none" xmlns="http://www.w3.org/2000/svg">
<path d="M25 20V17C25 15.9391 24.5786 14.9217 23.8284 14.1716C23.0783 13.4214 22.0609 13 21 13C19.9391 13 18.9217 13.4214 18.1716 14.1716C17.4214 14.9217 17 15.9391 17 17V20C16.4697 20.0005 15.9613 20.2114 15.5864 20.5864C15.2114 20.9613 15.0005 21.4697 15 22V27C15.0005 27.5303 15.2114 28.0387 15.5864 28.4136C15.9613 28.7886 16.4697 28.9995 17 29H25C25.5303 28.9995 26.0387 28.7886 26.4136 28.4136C26.7886 28.0387 26.9995 27.5303 27 27V22C26.9995 21.4697 26.7886 20.9613 26.4136 20.5864C26.0387 20.2114 25.5303 20.0005 25 20ZM19 17C19 16.4696 19.2107 15.9609 19.5858 15.5858C19.9609 15.2107 20.4696 15 21 15C21.5304 15 22.0391 15.2107 22.4142 15.5858C22.7893 15.9609 23 16.4696 23 17V20H19V17ZM17 27V22H25V27H17Z" fill="#2B2B2B" stroke="#2B2B2B"/>
<path d="M20.499 8.085L13.707 1.293C13.5195 1.10545 13.2652 1.00006 13 1H3C2.47005 1.00158 1.96227 1.2128 1.58753 1.58753C1.2128 1.96227 1.00158 2.47005 1 3V27C1.00158 27.5299 1.2128 28.0377 1.58753 28.4125C1.96227 28.7872 2.47005 28.9984 3 29H11V27H3V3H11V9C11.0005 9.53027 11.2114 10.0387 11.5864 10.4136C11.9613 10.7886 12.4697 10.9995 13 11H19.292C19.6296 10.9997 19.9595 10.8994 20.2401 10.7117C20.5207 10.524 20.7394 10.2573 20.8686 9.94542C20.9977 9.63351 21.0316 9.29032 20.9658 8.95919C20.9 8.62807 20.7376 8.32386 20.499 8.085ZM13 9V3.414L18.585 9H13Z" fill="#2B2B2B" stroke="#2B2B2B"/>
</svg>
