<svg width="30" height="24" viewBox="0 0 30 24" fill="none" xmlns="http://www.w3.org/2000/svg">
<path d="M25.5 0H4.49997C3.3065 0 2.1619 0.474106 1.31799 1.31802C0.474075 2.16193 -3.05176e-05 3.30653 -3.05176e-05 4.5V19.5C-3.05176e-05 20.6935 0.474075 21.8381 1.31799 22.682C2.1619 23.5259 3.3065 24 4.49997 24H25.5C26.6934 24 27.838 23.5259 28.682 22.682C29.5259 21.8381 30 20.6935 30 19.5V4.5C30 3.30653 29.5259 2.16193 28.682 1.31802C27.838 0.474106 26.6934 0 25.5 0ZM24.495 3L15 10.125L5.50497 3H24.495ZM25.5 21H4.49997C4.10215 21 3.72061 20.842 3.43931 20.5607C3.15801 20.2794 2.99997 19.8978 2.99997 19.5V4.875L14.1 13.2C14.3596 13.3947 14.6754 13.5 15 13.5C15.3245 13.5 15.6403 13.3947 15.9 13.2L27 4.875V19.5C27 19.8978 26.8419 20.2794 26.5606 20.5607C26.2793 20.842 25.8978 21 25.5 21Z" fill="#2B2B2B"/>
</svg>
