<svg width="48" height="30" viewBox="0 0 48 30" fill="none" xmlns="http://www.w3.org/2000/svg">
<path d="M47.3454 27.0124L47.3454 20.3083C47.3418 19.771 47.137 19.2546 46.7714 18.8609C46.4058 18.4672 45.906 18.2248 45.3705 18.1814C44.5433 18.1149 43.7712 17.7401 43.2074 17.1312C42.6435 16.5223 42.3289 15.7238 42.3261 14.8939C42.3291 14.0643 42.6436 13.2661 43.2073 12.6574C43.771 12.0487 44.5428 11.6739 45.3697 11.6072C45.9052 11.5638 46.405 11.3214 46.7706 10.9277C47.1362 10.534 47.341 10.0176 47.3446 9.48034L47.3454 2.76939C47.3449 2.20287 47.1196 1.6597 46.719 1.2591C46.3184 0.858507 45.7752 0.633215 45.2087 0.632673L34.5221 0.631913C33.861 0.633094 33.2093 0.787264 32.6178 1.08235C32.5037 1.13872 32.3781 1.16804 32.2509 1.16804C32.1236 1.16804 31.9981 1.13872 31.884 1.08235C31.2923 0.787079 30.6402 0.63315 29.979 0.632673L2.57305 0.632675C2.00652 0.633218 1.46335 0.858511 1.06276 1.2591C0.662165 1.6597 0.436871 2.20287 0.436329 2.76939L0.440126 9.47731C0.443772 10.0146 0.648577 10.5309 1.01415 10.9246C1.37973 11.3183 1.87955 11.5608 2.41505 11.6042C3.24427 11.6665 4.0193 12.0399 4.58483 12.6496C5.15035 13.2592 5.4646 14.0601 5.4646 14.8916C5.4646 15.7232 5.15035 16.5241 4.58483 17.1337C4.0193 17.7434 3.24427 18.1168 2.41505 18.1791C1.87955 18.2225 1.37973 18.465 1.01415 18.8587C0.648575 19.2524 0.443771 19.7687 0.440125 20.306L0.440124 27.0101C0.440666 27.5766 0.665961 28.1198 1.06656 28.5204C1.46715 28.921 2.01032 29.1463 2.57684 29.1468L29.9828 29.1468C30.6437 29.1463 31.2955 28.9927 31.887 28.6979C32.0013 28.6411 32.1271 28.6116 32.2547 28.6116C32.3822 28.6116 32.5081 28.6411 32.6223 28.6979C33.2136 28.9927 33.8651 29.1466 34.5259 29.1476L45.2125 29.1468C45.778 29.1453 46.3198 28.9199 46.7195 28.5199C47.1192 28.1199 47.3443 27.5779 47.3454 27.0124ZM32.2509 7.41351C32.0251 7.41353 31.8016 7.36909 31.593 7.28271C31.3845 7.19634 31.195 7.06972 31.0353 6.9101C30.8757 6.75047 30.7491 6.56097 30.6627 6.3524C30.5764 6.14384 30.5319 5.9203 30.5319 5.69456V3.94599C30.5386 3.49455 30.7227 3.06388 31.0443 2.74704C31.366 2.4302 31.7994 2.25264 32.2509 2.25274C32.7024 2.25284 33.1357 2.43059 33.4572 2.74757C33.7787 3.06455 33.9626 3.49531 33.9691 3.94675L33.9698 5.69456C33.9699 5.9203 33.9254 6.14384 33.839 6.3524C33.7527 6.56097 33.626 6.75048 33.4664 6.9101C33.3068 7.06972 33.1173 7.19634 32.9087 7.28271C32.7002 7.36909 32.4766 7.41353 32.2509 7.41351ZM32.2509 14.0979C31.7952 14.0977 31.3583 13.9167 31.0361 13.5945C30.7139 13.2723 30.5328 12.8353 30.5327 12.3797V10.7086C30.5327 10.4829 30.5772 10.2593 30.6635 10.0508C30.7499 9.84224 30.8765 9.65274 31.0362 9.49312C31.1958 9.3335 31.3853 9.20689 31.5938 9.1205C31.8024 9.03412 32.0259 8.98965 32.2516 8.98965C32.7075 8.98965 33.1448 9.17076 33.4671 9.49312C33.6267 9.65274 33.7534 9.84223 33.8397 10.0508C33.9261 10.2593 33.9706 10.4829 33.9706 10.7086V12.3797C33.971 12.6058 33.9268 12.8298 33.8405 13.0388C33.7542 13.2478 33.6275 13.4378 33.4677 13.5977C33.3079 13.7577 33.1181 13.8846 32.9091 13.971C32.7002 14.0575 32.4763 14.1019 32.2501 14.1017L32.2509 14.0979ZM32.2509 20.7822C32.0251 20.7823 31.8016 20.7378 31.593 20.6515C31.3845 20.5651 31.195 20.4385 31.0354 20.2788C30.8757 20.1192 30.7491 19.9297 30.6627 19.7211C30.5764 19.5126 30.5319 19.289 30.5319 19.0633V17.3922C30.5386 16.9408 30.7227 16.5101 31.0443 16.1933C31.366 15.8764 31.7994 15.6989 32.2509 15.699C32.7024 15.6991 33.1357 15.8768 33.4572 16.1938C33.7787 16.5108 33.9626 16.9415 33.9691 17.393V19.0641C33.97 19.2903 33.9262 19.5145 33.8403 19.7238C33.7544 19.9331 33.628 20.1234 33.4684 20.2837C33.3087 20.4441 33.119 20.5713 32.9101 20.6582C32.7012 20.745 32.4771 20.7898 32.2509 20.7898V20.7822ZM32.2425 27.5403C32.0168 27.5403 31.7932 27.4959 31.5847 27.4095C31.3761 27.3231 31.1866 27.1965 31.027 27.0369C30.8674 26.8773 30.7408 26.6878 30.6544 26.4792C30.568 26.2706 30.5236 26.0471 30.5236 25.8213L30.5281 24.0789C30.5254 23.8511 30.568 23.625 30.6534 23.4139C30.7388 23.2027 30.8653 23.0106 31.0256 22.8487C31.1859 22.6869 31.3768 22.5585 31.5872 22.4711C31.7975 22.3837 32.0231 22.339 32.2509 22.3395C32.4787 22.3401 32.7042 22.3859 32.9141 22.4743C33.124 22.5628 33.3142 22.6921 33.4738 22.8547C33.6333 23.0173 33.7589 23.21 33.8433 23.4216C33.9276 23.6332 33.9691 23.8594 33.9653 24.0872L33.9622 25.8297C33.9622 26.0554 33.9176 26.279 33.8311 26.4875C33.7447 26.696 33.618 26.8855 33.4583 27.045C33.2986 27.2046 33.109 27.3311 32.9004 27.4174C32.6918 27.5037 32.4683 27.548 32.2425 27.5479L32.2425 27.5403Z" fill="#F4F4F4"/>
</svg>
