<svg width="372" height="372" viewBox="0 0 372 372" fill="none" xmlns="http://www.w3.org/2000/svg">
<path d="M186 0C161.677 0 143.077 18.6 143.077 42.9231V128.769C143.077 153.092 161.677 171.692 186 171.692H271.846L329.077 228.923V171.692C353.4 171.692 372 153.092 372 128.769V42.9231C372 18.6 353.4 0 329.077 0H186ZM245.921 42.9231H270.501L294.653 128.769H273.191L267.368 107.308H245.906L240.555 128.769H221.769L245.921 42.9231ZM257.538 57.2308C256.108 62.9538 254.505 69.936 253.06 74.2283L249.054 93H266.037L262.002 74.214C259.155 69.936 257.538 62.9538 257.538 57.2308ZM42.9231 143.077C18.6 143.077 0 161.677 0 186V271.846C0 296.169 18.6 314.769 42.9231 314.769V372L100.154 314.769H186C210.323 314.769 228.923 296.169 228.923 271.846V186H186C158.815 186 137.268 167.4 130.114 143.077H42.9231ZM108.653 184.655C132.976 184.655 144.422 204.686 144.422 227.578C144.422 247.609 137.54 260.314 126.094 266.037C131.817 268.899 138.599 270.415 145.752 271.846L140.401 286.154C130.386 283.292 119.999 278.828 109.983 274.522C108.552 273.091 106.049 273.191 104.618 273.191C87.4486 271.76 71.5385 257.538 71.5385 228.923C71.5385 204.6 85.7603 184.655 108.653 184.655ZM108.653 200.308C97.2065 200.308 91.6551 213.185 91.6551 228.923C91.6551 246.092 97.2065 257.538 108.653 257.538C120.099 257.538 126.079 244.662 126.079 228.923C126.079 213.185 120.099 200.308 108.653 200.308Z" fill="#F4F4F4"/>
</svg>
