<svg width="243" height="294" viewBox="0 0 243 294" fill="none" xmlns="http://www.w3.org/2000/svg">
<path d="M0.666668 37.0002V257C0.666668 266.725 4.52975 276.051 11.4061 282.927C18.2824 289.804 27.6087 293.667 37.3333 293.667H231.667C234.584 293.667 237.382 292.508 239.445 290.445C241.508 288.382 242.667 285.584 242.667 282.667C242.667 279.749 241.508 276.952 239.445 274.889C237.382 272.826 234.584 271.667 231.667 271.667H37.3333C33.4435 271.667 29.713 270.122 26.9624 267.371C24.2119 264.621 22.6667 260.89 22.6667 257H231.667C234.584 257 237.382 255.841 239.445 253.778C241.508 251.715 242.667 248.918 242.667 246V37.0002C242.667 32.185 241.718 27.417 239.876 22.9684C238.033 18.5198 235.332 14.4777 231.927 11.0729C228.522 7.6681 224.48 4.96725 220.032 3.12458C215.583 1.28191 210.815 0.333496 206 0.333496H37.3333C27.6087 0.333496 18.2824 4.19658 11.4061 11.0729C4.52975 17.9492 0.666668 27.2756 0.666668 37.0002ZM103.333 88.5975C103.264 91.4689 102.075 94.1994 100.02 96.2056C97.9642 98.2117 95.2056 99.3343 92.3333 99.3335C81.3333 99.3335 81.3333 88.3188 81.3333 88.3188V88.1868C81.3411 87.5302 81.3802 86.8744 81.4507 86.2215C82.0995 80.5559 84.2235 75.1598 87.6107 70.5722C94.2694 61.5815 106.237 54.9962 125.524 55.3335C139.457 55.5828 151.821 61.4202 159.565 71.0268C167.441 80.8095 170.096 94.0535 164.875 107.092C159.565 120.366 147.553 125.646 140.645 128.667L139.912 129.004C135.805 130.808 133.855 131.747 132.681 132.686L132.667 132.7V143.319C132.669 146.236 131.512 149.035 129.45 151.099C127.389 153.163 124.591 154.324 121.674 154.326C118.757 154.328 115.958 153.171 113.894 151.11C111.829 149.048 110.669 146.251 110.667 143.333V132.333C110.667 124.663 114.363 119.177 118.924 115.511C122.591 112.577 127.211 110.553 130.452 109.116L131.009 108.867C138.959 105.361 142.743 103.191 144.459 98.9082C145.466 96.6056 145.81 94.0675 145.453 91.5798C145.095 89.0921 144.05 86.7537 142.435 84.8282C139.179 80.7948 133.209 77.4655 125.143 77.3335C111.429 77.0988 106.883 81.5135 105.299 83.6695C104.25 85.0934 103.574 86.7574 103.333 88.5095V88.5975ZM136.333 183.667C136.333 187.557 134.788 191.287 132.038 194.038C129.287 196.788 125.557 198.333 121.667 198.333C117.777 198.333 114.046 196.788 111.296 194.038C108.545 191.287 107 187.557 107 183.667C107 179.777 108.545 176.046 111.296 173.296C114.046 170.545 117.777 169 121.667 169C125.557 169 129.287 170.545 132.038 173.296C134.788 176.046 136.333 179.777 136.333 183.667Z" fill="#F4F4F4"/>
</svg>
