<svg width="260" height="234" viewBox="0 0 260 234" fill="none" xmlns="http://www.w3.org/2000/svg">
<path d="M91 104C101.285 104 111.338 100.95 119.89 95.2364C128.441 89.5226 135.106 81.4013 139.042 71.8996C142.977 62.3978 144.007 51.9423 142.001 41.8553C139.994 31.7683 135.042 22.5028 127.77 15.2305C120.497 7.95814 111.232 3.00562 101.145 0.999189C91.0577 -1.00724 80.6022 0.0225306 71.1005 3.95829C61.5987 7.89404 53.4774 14.559 47.7636 23.1104C42.0497 31.6617 39 41.7154 39 52C39 65.7913 44.4786 79.0177 54.2304 88.7696C63.9823 98.5215 77.2087 104 91 104ZM195 130C202.713 130 210.254 127.713 216.667 123.427C223.081 119.142 228.079 113.051 231.031 105.925C233.983 98.7984 234.755 90.9568 233.251 83.3915C231.746 75.8262 228.031 68.8771 222.577 63.4229C217.123 57.9686 210.174 54.2542 202.609 52.7494C195.043 51.2446 187.202 52.0169 180.075 54.9687C172.949 57.9205 166.858 62.9193 162.573 69.3328C158.287 75.7463 156 83.2866 156 91C156 101.343 160.109 111.263 167.423 118.577C174.737 125.891 184.657 130 195 130ZM247 221C250.448 221 253.754 219.63 256.192 217.192C258.63 214.754 260 211.448 260 208C259.99 195.85 256.574 183.946 250.141 173.639C243.708 163.332 234.515 155.035 223.605 149.688C212.694 144.341 200.504 142.159 188.417 143.39C176.329 144.621 164.829 149.214 155.22 156.65C142.487 143.967 126.283 135.338 108.652 131.852C91.0207 128.365 72.7522 130.178 56.1499 137.061C39.5477 143.944 25.3554 155.588 15.3626 170.527C5.3699 185.465 0.0243125 203.028 0 221C0 224.448 1.36964 227.754 3.80761 230.192C6.24558 232.63 9.55219 234 13 234H169C172.448 234 175.754 232.63 178.192 230.192C180.63 227.754 182 224.448 182 221" fill="#F4F4F4"/>
</svg>
