<svg width="72" height="72" viewBox="0 0 72 72" fill="none" xmlns="http://www.w3.org/2000/svg">
<path d="M11.155 2.25C11.155 1.65326 11.3921 1.08097 11.814 0.65901C12.236 0.237053 12.8083 0 13.405 0L58.405 0C59.0018 0 59.5741 0.237053 59.996 0.65901C60.418 1.08097 60.655 1.65326 60.655 2.25C60.655 4.671 60.601 6.975 60.502 9.162C62.2801 9.45644 63.9813 10.1039 65.5051 11.0663C67.029 12.0287 68.3447 13.2865 69.3747 14.7654C70.4048 16.2444 71.1282 17.9147 71.5024 19.6777C71.8766 21.4408 71.894 23.2609 71.5535 25.0307C71.2131 26.8006 70.5217 28.4844 69.5201 29.9828C68.5185 31.4812 67.2271 32.7638 65.7219 33.7552C64.2167 34.7465 62.5282 35.4263 60.7561 35.7547C58.9839 36.0831 57.164 36.0532 55.4035 35.667C51.8485 44.0595 46.9525 48.1635 42.655 49.2165V58.995L49.0675 60.597C49.9405 60.813 50.764 61.2045 51.484 61.7445L59.755 67.95C60.1328 68.2333 60.4119 68.6284 60.5527 69.0791C60.6935 69.5299 60.6889 70.0135 60.5396 70.4615C60.3902 70.9095 60.1037 71.2992 59.7206 71.5753C59.3375 71.8514 58.8773 72 58.405 72H13.405C12.9328 72 12.4725 71.8514 12.0894 71.5753C11.7063 71.2992 11.4198 70.9095 11.2705 70.4615C11.1212 70.0135 11.1166 69.5299 11.2574 69.0791C11.3982 68.6284 11.6772 68.2333 12.055 67.95L20.326 61.7445C21.046 61.2045 21.8695 60.813 22.7425 60.597L29.155 58.995V49.2165C24.8575 48.1635 19.9615 44.0595 16.4065 35.6625C14.6452 36.0508 12.8239 36.0823 11.0501 35.7549C9.27643 35.4276 7.58629 34.7482 6.07954 33.7568C4.57278 32.7654 3.27997 31.4821 2.27746 29.9827C1.27494 28.4833 0.58304 26.7983 0.242624 25.027C-0.0977915 23.2558 -0.079822 21.4343 0.295471 19.6701C0.670765 17.9059 1.39577 16.2348 2.42768 14.7555C3.45958 13.2762 4.77746 12.0187 6.30347 11.0572C7.82949 10.0957 9.53271 9.44976 11.3125 9.1575C11.2066 6.85653 11.1541 4.55341 11.155 2.25ZM11.6005 13.68C9.25237 14.1097 7.17106 15.4545 5.81447 17.4187C4.45788 19.3829 3.93713 21.8056 4.36678 24.1537C4.79643 26.5019 6.14128 28.5832 8.10549 29.9398C10.0697 31.2964 12.4924 31.8172 14.8405 31.3875C13.342 26.6625 12.1945 20.8305 11.6005 13.68ZM56.974 31.3875C59.3222 31.8172 61.7449 31.2964 63.7091 29.9398C65.6733 28.5832 67.0181 26.5019 67.4478 24.1537C67.8774 21.8056 67.3567 19.3829 66.0001 17.4187C64.6435 15.4545 62.5622 14.1097 60.214 13.68C59.6155 20.835 58.468 26.6625 56.974 31.3875Z" fill="#F4F4F4"/>
</svg>
